Motion_pl13
version=1
nRows=15
nColumns=43
inDegrees=yes
endheader
time	pelvis_tilt	pelvis_list	pelvis_rotation	pelvis_tx	pelvis_ty	pelvis_tz	hip_flexion_r	hip_adduction_r	hip_rotation_r	knee_angle_r	ankle_angle_r	subtalar_angle_r	mtp_angle_r	hip_flexion_l	hip_adduction_l	hip_rotation_l	knee_angle_l	ankle_angle_l	subtalar_angle_l	mtp_angle_l	lumbar_extension	lumbar_bending	lumbar_rotation	neck_flexion	neck_lateral_bending	neck_rotation	arm_flex_r	arm_add_r	arm_rot_r	elbow_flex_r	pro_sup_r	wrist_flex_r	wrist_dev_r	hand_finger_flex_r	arm_flex_l	arm_add_l	arm_rot_l	elbow_flex_l	pro_sup_l	wrist_flex_l	wrist_dev_l	hand_finger_flex_l
      1.63500000	      3.23885586	      8.66058329	     88.18481105	      0.03142318	      0.86051971	      0.55566943	     37.11355947	     -0.12683865	     -3.36230550	    -51.77996444	     -0.05944619	      3.06457125	     14.56504573	     39.25890573	     -8.78207456	      0.09124287	    -55.40632203	     -4.62215583	     11.86732009	     22.32838101	    -40.05980847	      2.41575089	      6.55524533	    -11.54355841	      0.21763621	     -4.39303946	    -47.96757219	     -5.88781977	    -26.26552843	     57.42256223	    111.07094929	     -1.83447223	    -22.32645592	    -13.01996989	    -50.43081322	     -9.81794313	    -18.30979681	     44.06039342	    119.26500588	    -32.01865302	    -14.46997907	    -16.11637642
      1.63750000	      3.45431406	      8.31919286	     88.20257826	      0.03147027	      0.84894945	      0.55298457	     38.33812480	      0.28418120	     -3.32021242	    -54.04704740	      4.31089874	      2.58368911	      8.10768578	     40.74316149	     -8.82189587	      0.71302292	    -58.00264142	     -0.73309743	     12.21123221	     16.62352603	    -40.08338983	      2.60450221	      6.76343584	    -10.69015956	      0.19034134	     -4.33996385	    -47.34376458	     -6.39878761	    -25.74640836	     58.15438212	    109.80512735	     -2.20196587	    -22.45313416	    -13.02282224	    -49.66557740	    -10.17740682	    -17.82814836	     44.68763452	    119.60352388	    -32.86220244	    -14.48333959	    -15.65242868
      1.64000000	      3.58336013	      8.40950482	     88.09996217	      0.03165080	      0.83888959	      0.55038910	     39.00054170	      0.61105121	     -3.29011676	    -56.03985064	      8.11340794	      2.32525849	      4.17385891	     41.60347566	     -8.92856529	      0.98936933	    -60.35156894	      2.65736559	     12.57677117	     13.54027131	    -40.64750671	      2.61212881	      6.86638479	     -9.74043306	      0.21358257	     -4.30254369	    -46.32445313	     -6.73469980	    -25.83909381	     58.75958960	    110.01355404	     -2.40881670	    -22.58743869	    -12.49225136	    -48.69798199	    -10.38413206	    -17.63496433	     45.08068426	    119.82960357	    -33.24184647	    -14.75525252	    -15.45374177
      1.64250000	      3.64227318	      8.57801963	     88.06604247	      0.03167444	      0.82928081	      0.54801232	     39.60768873	      0.81749380	     -3.34693063	    -57.92882854	     10.70084032	      1.46968543	      4.30522119	     42.39727587	     -8.94517910	      1.07649679	    -62.58227340	      5.13583870	     12.14513033	     13.72304799	    -41.33219908	      2.57995636	      6.91066284	     -8.72562412	      0.25351887	     -4.29566738	    -45.19400778	     -7.14236848	    -25.83561089	     59.27712515	    109.89721186	     -2.46640729	    -22.66905677	    -12.51006128	    -47.64779562	    -10.59211435	    -17.50042164	     45.56088749	    119.94363121	    -33.39790578	    -14.87997202	    -15.50244506
      1.64500000	      3.91913031	      7.87138932	     88.10439983	      0.03176270	      0.81764958	      0.54602136	     41.43558327	      1.16235252	     -3.67586792	    -60.09354529	     13.27643927	      0.58431149	      0.12212273	     44.47743467	     -9.08323409	      1.52685710	    -65.07693282	      7.45033402	     12.08049711	     10.83253686	    -41.01635511	      2.85161776	      7.09698482	     -8.01253493	      0.21135880	     -4.35077104	    -44.33634404	     -7.69641771	    -25.39933568	     59.93427440	    108.78548770	     -2.99035178	    -22.79926324	    -12.31662757	    -46.70732578	    -10.97392022	    -16.89233933	     46.09087647	    120.32965791	    -34.16556197	    -14.63976096	    -15.38692885
      1.64750000	      3.96488915	      8.05787365	     87.99503274	      0.03184277	      0.80864649	      0.54411856	     42.18258537	      1.28518603	     -3.87624887	    -61.94101620	     15.19325694	     -0.05531930	      0.19937835	     45.28490582	     -9.16497467	      1.50638975	    -67.09448183	      9.16087303	     11.93541696	     10.94344881	    -41.80812372	      2.75732270	      7.19416660	     -6.84262375	      0.27107204	     -4.33127639	    -43.07115032	     -8.13452663	    -25.39656384	     60.48322716	    108.81174759	     -3.02990139	    -22.86371818	    -12.28378963	    -45.49562409	    -11.16712499	    -16.76964144	     46.51325673	    120.46365412	    -34.30241304	    -14.83151103	    -15.42249161
      1.65000000	      4.17166272	      7.31058389	     87.90330674	      0.03223624	      0.79756034	      0.54247907	     44.18627831	      1.63544128	     -4.10163214	    -63.98853010	     16.67593730	     -0.96170604	     -1.21167976	     47.40492409	     -9.39290390	      1.76800239	    -69.35053607	     10.63151789	     12.10564011	     10.02702019	    -41.50730440	      2.85547082	      7.42304937	     -6.09000295	      0.26800781	     -4.36232739	    -41.95915966	     -8.58862738	    -25.27282072	     61.05509234	    108.69186551	     -3.33230799	    -22.92313262	    -12.07387101	    -44.31736768	    -11.48448920	    -16.35241302	     46.76986384	    120.81343479	    -34.95906399	    -14.94186005	    -15.46813054
      1.65250000	      4.18201841	      7.46695258	     87.85924737	      0.03217838	      0.78882882	      0.54102369	     45.13073492	      1.65747782	     -4.34193101	    -65.83451838	     17.84419663	     -1.70428268	     -1.27062831	     48.33199808	     -9.42416099	      1.69131274	    -71.24145035	     11.81087479	     11.76234507	     10.04384079	    -42.32592789	      2.76797669	      7.48275220	     -4.82114364	      0.28200687	     -4.37251454	    -40.68147089	     -9.03049241	    -25.27656647	     61.73828163	    108.65691959	     -3.40161915	    -23.05077565	    -12.04829403	    -43.07736399	    -11.71094253	    -16.19331996	     47.35391094	    120.93275151	    -35.08141269	    -15.08466573	    -15.47503143
      1.65500000	      4.25455070	      6.61403505	     87.78096376	      0.03243614	      0.77787969	      0.53969411	     47.41117871	      1.85176468	     -4.50352407	    -67.92928682	     18.97176068	     -2.48000481	     -3.83139446	     50.57141691	     -9.48626772	      1.86820834	    -73.32959937	     12.95332776	     11.51246158	      8.31589945	    -41.91636020	      2.75654959	      7.66204677	     -4.09966177	      0.26006410	     -4.42003137	    -39.50849639	     -9.53579952	    -25.05178175	     62.29426449	    108.29153030	     -3.94694501	    -23.24372709	    -11.45201634	    -41.88629080	    -12.08393849	    -15.66866684	     47.82799468	    121.11233808	    -35.81625456	    -14.83230561	    -15.05516204
      1.65750000	      4.14001523	      6.45807161	     87.70804424	      0.03264964	      0.76894327	      0.53866758	     48.85489055	      1.95369441	     -4.42560667	    -69.84217443	     19.33202313	     -3.81741840	     -4.12626821	     51.84635720	     -9.47905238	      1.70334178	    -75.08095485	     13.63289011	     11.05443121	      8.22259391	    -42.43444258	      2.52065962	      7.66701094	     -2.82242542	      0.31097943	     -4.51420121	    -38.11468730	     -9.88394773	    -25.12640992	     62.96453267	    108.24498749	     -4.11871596	    -23.24477880	    -11.39038142	    -40.48628976	    -12.35579541	    -15.48937132	     48.18792347	    121.32538196	    -36.12330837	    -15.09692173	    -15.07344244
      1.66000000	      4.10694079	      6.47918075	     87.62548434	      0.03273064	      0.76062906	      0.53745180	     49.98822179	      2.04627821	     -4.44432294	    -71.64309184	     20.12110701	     -4.50395681	     -4.11530035	     52.90836566	     -9.50811003	      1.62600556	    -76.81298778	     14.46040052	     10.73386027	      8.29863563	    -43.11948868	      2.35827239	      7.71718281	     -1.62008800	      0.30532734	     -4.55005496	    -36.64978864	    -10.41167064	    -25.03097766	     63.55290152	    108.26727566	     -4.12820742	    -23.31472673	    -11.34035734	    -39.06427115	    -12.61139781	    -15.27226236	     48.62825113	    121.44394931	    -36.18362206	    -15.19498487	    -15.04965998
      1.66250000	      3.84151584	      5.75033576	     87.42827216	      0.03330639	      0.75062742	      0.53647560	     52.24066208	      2.20953318	     -4.08603142	    -73.72692141	     20.12670557	     -5.71845070	     -4.43556546	     54.81823931	     -9.51853618	      1.35476675	    -78.60271694	     14.94646116	     10.16512818	      8.28101687	    -42.91319416	      1.92740309	      7.75154223	     -0.75848051	      0.34441622	     -4.63933851	    -35.28235079	    -10.74509802	    -25.05399427	     64.15807367	    108.19322070	     -4.31736640	    -23.35886969	    -11.21890943	    -37.69399461	    -12.99524084	    -14.96244464	     49.00759874	    121.61639460	    -36.67062600	    -15.22316940	    -15.00560693
      1.66500000	      3.77724750	      5.81673470	     87.36010637	      0.03343352	      0.74274536	      0.53525741	     53.33991088	      2.30050773	     -4.01683831	    -75.55762971	     20.75443572	     -6.25738810	     -4.41430104	     55.75536286	     -9.52343509	      1.29837793	    -80.25673724	     15.69785275	      9.85778406	      8.38751004	    -43.64824885	      1.74153239	      7.75318634	      0.41432932	      0.33062954	     -4.68296156	    -33.74557484	    -11.28388202	    -24.94748326	     64.74625899	    108.21310764	     -4.30318399	    -23.43291683	    -11.15248819	    -36.21740558	    -13.28731391	    -14.73723180	     49.44677278	    121.72975986	    -36.71067946	    -15.30033181	    -14.94382717
      1.66750000	      3.36328755	      5.34177308	     87.15270018	      0.03394335	      0.73356798	      0.53417809	     55.28995065	      2.39692762	     -3.50130960	    -77.67805170	     20.66019514	     -7.19773108	     -4.63512200	     57.29074371	     -9.43808597	      0.89095160	    -81.96212313	     16.10265903	      9.28492548	      8.48288563	    -43.71274167	      1.15941643	      7.71682176	      1.32744443	      0.36506273	     -4.78725599	    -32.30877041	    -11.58138977	    -25.01162105	     65.37484579	    108.11537771	     -4.41384633	    -23.47016195	    -10.98681803	    -34.76880589	    -13.67232432	    -14.43922253	     49.86198688	    121.88606276	    -37.19491681	    -15.29038666	    -14.79538820
      1.67000000	      3.08536233	      5.24334154	     87.04033529	      0.03418831	      0.72544964	      0.53293039	     56.68257121	      2.42999057	     -3.17132179	    -79.67364088	     20.86698510	     -7.74669761	     -4.72228278	     58.37817563	     -9.37277646	      0.65731248	    -83.61797585	     16.63751035	      8.87913061	      8.62983060	    -44.22300964	      0.75772697	      7.65569171	      2.36921733	      0.36304193	     -4.86386841	    -30.79258134	    -12.00827291	    -24.98303806	     65.99217941	    108.06609956	     -4.43645812	    -23.53722969	    -10.81077050	    -33.26133340	    -14.02486401	    -14.16631151	     50.30813085	    122.01577439	    -37.50717811	    -15.27793028	    -14.56722083
